<svg xmlns="http://www.w3.org/2000/svg" viewBox="0 0 410 404"><path fill="#41D1FF" d="M399.641 59.524L215.643 388.545c-3.886 6.956-13.902 7.004-17.857.086L9.74 59.57c-4.31-7.538 2.155-16.73 10.682-15.179l184.102 33.479a10.15 10.15 0 0 0 3.63 0l180.78-33.445c8.513-1.574 15.005 7.578 10.707 15.099z"/><path fill="#BD34FE" d="M292.965.533L156.412 27.245a5.07 5.07 0 0 0-4.108 5.86l8.297 49.834a5.07 5.07 0 0 0 5.876 4.108l37.994-7.303c3.68-.708 7.028 2.527 6.71 6.257l-11.28 134.879c-.416 4.985 4.167 8.948 9.078 7.974l23.467-4.657c3.949-.784 7.517 2.704 6.707 6.64l-16.746 81.6c-1.047 5.102 5.735 7.885 8.58 3.455l1.904-2.966 111.16-221.89c1.863-3.72-1.357-7.914-5.429-7.128l-39.078 7.513c-3.676.707-7.022-2.518-6.717-6.244l17.61-213.32c.41-4.983-4.169-8.94-9.076-7.967z"/></svg>